<svg width="27" height="24" viewBox="0 0 27 24" fill="none" xmlns="http://www.w3.org/2000/svg">
<path d="M2.25 10.5C1.42157 10.5 0.75 11.1716 0.75 12C0.75 12.8284 1.42157 13.5 2.25 13.5L2.25 10.5ZM25.8107 13.0607C26.3964 12.4749 26.3964 11.5251 25.8107 10.9393L16.2647 1.3934C15.6789 0.80761 14.7292 0.80761 14.1434 1.3934C13.5576 1.97918 13.5576 2.92893 14.1434 3.51472L22.6287 12L14.1434 20.4853C13.5576 21.0711 13.5576 22.0208 14.1434 22.6066C14.7292 23.1924 15.6789 23.1924 16.2647 22.6066L25.8107 13.0607ZM2.25 13.5L24.75 13.5L24.75 10.5L2.25 10.5L2.25 13.5Z" fill="#21201F"/>
</svg>
